<svg width="25" height="20" viewBox="0 0 25 20" fill="none" xmlns="http://www.w3.org/2000/svg">
<path d="M17.357 7.07422C18.2313 7.68672 18.75 8.68203 18.75 9.75352V10.9375C18.75 11.1102 18.8898 11.25 19.0625 11.25H20.9375C21.1102 11.25 21.25 11.1102 21.25 10.9375V9.75352C21.25 8.06445 20.4293 6.49531 19.0492 5.53242C18.1191 4.88359 17.5 3.88047 17.5 2.74648V0.3125C17.5 0.139844 17.3602 0 17.1875 0H15.3125C15.1398 0 15 0.139844 15 0.3125V2.90625C15 4.61289 15.9594 6.09492 17.357 7.07422ZM7.61602 14.0227C4.92305 14.4559 2.33164 15.4176 0 16.875C3.26758 18.9172 7.04297 20 10.8961 20H14.3559L9.95273 14.8629C9.37695 14.191 8.48984 13.882 7.61602 14.0227ZM21.6125 3.40195C21.391 3.25352 21.25 3.01289 21.25 2.74648V0.3125C21.25 0.139844 21.1102 0 20.9375 0H19.0625C18.8898 0 18.75 0.139844 18.75 0.3125V2.74648C18.75 3.60664 19.1473 4.44219 19.8688 4.91016C21.5152 5.97813 22.5 7.79453 22.5 9.75352V10.9375C22.5 11.1102 22.6398 11.25 22.8125 11.25H24.6875C24.8602 11.25 25 11.1102 25 10.9375V9.75352C25 7.19727 23.734 4.82422 21.6125 3.40195ZM14.0973 13.752C12.7535 13.7543 10.7062 13.7578 10.6516 13.7586L15.2531 19.127C15.4878 19.4008 15.7789 19.6206 16.1066 19.7713C16.4342 19.922 16.7905 20 17.1512 20H20.6063L15.9988 14.625C15.7638 14.3507 15.4721 14.1305 15.1439 13.9798C14.8156 13.8291 14.4585 13.7513 14.0973 13.752ZM24.0625 13.75H16.875L21.484 19.127C21.7186 19.4008 22.0098 19.6206 22.3374 19.7713C22.665 19.922 23.0214 20 23.382 20H24.0625C24.5801 20 25 19.5801 25 19.0625V14.6875C25 14.1695 24.5801 13.75 24.0625 13.75Z" fill="white"/>
</svg>
