<svg width="25" height="20" viewBox="0 0 25 20" fill="none" xmlns="http://www.w3.org/2000/svg">
<path d="M24.894 10.0337L24.1284 8.88531C23.0268 7.23296 21.187 6.24859 19.2026 6.24859H9.99947L6.8276 3.07671C7.61275 2.29156 7.71041 1.08062 7.12056 0.189993C6.98775 -0.0131317 6.69869 -0.0404755 6.52681 0.1314L4.894 1.76421L3.21822 0.092337C3.0776 -0.048288 2.84322 -0.0248505 2.73385 0.139212C2.25338 0.865775 2.3315 1.85796 2.97213 2.49859C3.10103 2.62749 3.25728 2.70562 3.41353 2.79156C3.3276 2.85796 3.22994 2.91265 3.16353 3.00249L0.24947 6.8814C-0.0356863 7.26031 -0.078655 7.76812 0.132283 8.18999L0.690876 9.30718C0.901814 9.72906 1.33541 9.99859 1.80806 9.99859H3.019C3.35103 9.99859 3.66744 9.86577 3.90181 9.6314L5.3901 8.27984L7.49947 12.4986H21.2495V9.45952C21.8823 9.93609 21.9643 10.147 22.8159 11.4244C23.0073 11.7134 23.394 11.7877 23.6831 11.5962L24.7221 10.9048C25.0073 10.7095 25.0854 10.3228 24.894 10.0337ZM11.5698 9.50249L10.9253 10.1314L11.0776 11.0181C11.1049 11.1783 10.937 11.2994 10.7963 11.2251L9.99947 10.8072L9.2026 11.2251C9.06197 11.2994 8.894 11.1783 8.92134 11.0181L9.07369 10.1314L8.42916 9.50249C8.31197 9.38921 8.37838 9.1939 8.53853 9.17046L9.42916 9.04156L9.8276 8.23296C9.89791 8.08843 10.1049 8.08843 10.1792 8.23296L10.5776 9.04156L11.4682 9.17046C11.6245 9.1939 11.687 9.38921 11.5698 9.50249ZM15.9448 9.50249L15.3003 10.1314L15.4526 11.0181C15.4799 11.1783 15.312 11.2994 15.1713 11.2251L14.3745 10.8072L13.5776 11.2251C13.437 11.2994 13.269 11.1783 13.2963 11.0181L13.4487 10.1314L12.8042 9.50249C12.687 9.38921 12.7534 9.1939 12.9135 9.17046L13.8042 9.04156L14.2026 8.23296C14.2729 8.08843 14.4799 8.08843 14.5542 8.23296L14.9526 9.04156L15.8432 9.17046C15.9995 9.1939 16.062 9.38921 15.9448 9.50249ZM20.3198 9.50249L19.6753 10.1314L19.8276 11.0181C19.8549 11.1783 19.687 11.2994 19.5463 11.2251L18.7495 10.8072L17.9526 11.2251C17.812 11.2994 17.644 11.1783 17.6713 11.0181L17.8237 10.1314L17.1792 9.50249C17.062 9.38921 17.1284 9.1939 17.2885 9.17046L18.1792 9.04156L18.5776 8.23296C18.6479 8.08843 18.8549 8.08843 18.9292 8.23296L19.3276 9.04156L20.2182 9.17046C20.3745 9.1939 20.437 9.38921 20.3198 9.50249ZM7.49947 19.3736C7.49947 19.7173 7.78072 19.9986 8.12447 19.9986H10.6245C10.9682 19.9986 11.2495 19.7173 11.2495 19.3736V16.2486H17.4995V19.3736C17.4995 19.7173 17.7807 19.9986 18.1245 19.9986H20.6245C20.9682 19.9986 21.2495 19.7173 21.2495 19.3736V13.7486H7.49947V19.3736Z" fill="white"/>
</svg>
